<?xml version="1.0" encoding="UTF-8"?>
<svg version="1.1" xmlns="http://www.w3.org/2000/svg" width="431" height="60">
<path d="M0 0 C3.63 0 7.26 0 11 0 C11 16.17 11 32.34 11 49 C17.6 49 24.2 49 31 49 C31.99 49.66 32.98 50.32 34 51 C33.505 51.99 33.505 51.99 33 53 C33.66 53 34.32 53 35 53 C35.66 53.99 36.32 54.98 37 56 C37.66 56 38.32 56 39 56 C39.66 53.36 40.32 50.72 41 48 C41.66 48 42.32 48 43 48 C42.814375 46.906875 42.62875 45.81375 42.4375 44.6875 C42 41 42 41 43 38 C43.66 38 44.32 38 45 38 C45.103125 37.360625 45.20625 36.72125 45.3125 36.0625 C45.539375 35.381875 45.76625 34.70125 46 34 C46.99 33.67 47.98 33.34 49 33 C48.67 32.34 48.34 31.68 48 31 C48.99 31 49.98 31 51 31 C51.68707555 28.50935112 52 26.62113708 52 24 C52.66 24 53.32 24 54 24 C54.268125 22.906875 54.53625 21.81375 54.8125 20.6875 C56.12321515 15.43520981 57.5611131 10.21836316 59 5 C59.99 5 60.98 5 62 5 C62.66 3.35 63.32 1.7 64 0 C66.31 0 68.62 0 71 0 C71.6708712 1.6232687 72.33657029 3.24867578 73 4.875 C73.37125 5.77992188 73.7425 6.68484375 74.125 7.6171875 C75 10 75 10 75 12 C74.67 12.33 74.34 12.66 74 13 C74.66 13 75.32 13 76 13 C76.19335938 13.74765625 76.38671875 14.4953125 76.5859375 15.265625 C76.97652344 16.74289063 76.97652344 16.74289063 77.375 18.25 C77.63023437 19.22453125 77.88546875 20.1990625 78.1484375 21.203125 C78.89724351 23.66250621 79.84044541 25.72122316 81 28 C81 28.66 81 29.32 81 30 C81.680625 30.598125 82.36125 31.19625 83.0625 31.8125 C83.701875 32.534375 84.34125 33.25625 85 34 C84.75 36.75 84.75 36.75 84 39 C85.485 39.495 85.485 39.495 87 40 C88.0625 42.8125 88.0625 42.8125 89 46 C89.94704259 48.01246551 90.96622909 49.94040427 92.0625 51.875 C93.2368038 54.53675527 93.55884073 57.13441676 94 60 C91.52076199 60.02685095 89.0418116 60.04676547 86.5625 60.0625 C85.85544922 60.07087891 85.14839844 60.07925781 84.41992188 60.08789062 C82.61306441 60.09653588 80.80612397 60.05220011 79 60 C78.67 59.67 78.34 59.34 78 59 C78.28730055 56.66055264 78.61936779 54.3260857 79 52 C78.34 51.67 77.68 51.34 77 51 C76.36614078 48.95756472 75.98173496 46.90867481 75.5625 44.8125 C75.2840625 43.9153125 75.2840625 43.9153125 75 43 C74.34 42.67 73.68 42.34 73 42 C72.05226618 40.07581315 71.18880578 38.10954393 70.375 36.125 C69.92898437 35.05507813 69.48296875 33.98515625 69.0234375 32.8828125 C68 30 68 30 68 27 C67.01 27 66.02 27 65 27 C62.50022457 30.33303391 62 31.73303602 62 36 C61.01139491 37.01126652 60.00959166 38.00968455 59 39 C57.78133025 41.71825785 57.78133025 41.71825785 56.8125 44.6875 C56.46832031 45.68136719 56.12414062 46.67523438 55.76953125 47.69921875 C55.51558594 48.45847656 55.26164062 49.21773437 55 50 C54.34 50 53.68 50 53 50 C53.226875 50.721875 53.45375 51.44375 53.6875 52.1875 C54 55 54 55 53.23510742 57.64526367 C50.54135164 60.48319644 49.77344576 60.38738634 45.9777832 60.56762695 C43.83528611 60.56683434 41.69268921 60.53852764 39.55078125 60.48828125 C37.85915108 60.47766914 37.85915108 60.47766914 36.13334656 60.46684265 C32.52572741 60.43881852 28.91965129 60.37606108 25.3125 60.3125 C22.86916301 60.28742769 20.42580174 60.26461267 17.98242188 60.24414062 C11.98775337 60.18896549 5.9939869 60.10525816 0 60 C-0.33 59.34 -0.66 58.68 -1 58 C-3.52733235 57.34444881 -3.52733235 57.34444881 -6 57 C-6 56.67 -6 56.34 -6 56 C-4.02 56 -2.04 56 0 56 C0 37.52 0 19.04 0 0 Z M59 9 C60 11 60 11 60 11 Z M71 9 C72 11 72 11 72 11 Z M47 35 C48 37 48 37 48 37 Z M45 39 C46 41 46 41 46 41 Z M79 54 C80 56 80 56 80 56 Z M51 55 C52 57 52 57 52 57 Z M37 57 C38 59 38 59 38 59 Z " fill="#060606" transform="translate(141,0)"/>
<path d="M0 0 C30 0 30 0 37 6 C38.32 6.66 39.64 7.32 41 8 C40.34 8 39.68 8 39 8 C39 8.66 39 9.32 39 10 C39.66 10 40.32 10 41 10 C41.0809723 12.43816585 41.14046972 14.87364384 41.1875 17.3125 C41.21263672 18.00279297 41.23777344 18.69308594 41.26367188 19.40429688 C41.33834499 24.55674183 41.33834499 24.55674183 39.48828125 26.98046875 C38.99714844 27.31691406 38.50601563 27.65335938 38 28 C38.99 28.33 39.98 28.66 41 29 C45.07878839 33.19875275 45.87216563 36.38026896 46.07421875 42.1015625 C45.87670004 48.15187249 43.77215294 51.09201946 39.49609375 55.2734375 C37.67256728 56.99710909 37.67256728 56.99710909 38 60 C25.46 60 12.92 60 0 60 C0 40.2 0 20.4 0 0 Z M11 11 C11 15.62 11 20.24 11 25 C13.35125 25.061875 13.35125 25.061875 15.75 25.125 C16.63171875 25.14820313 17.5134375 25.17140625 18.421875 25.1953125 C21.17990095 24.98637114 22.69903523 24.51063339 25 23 C25.66 22.01 26.32 21.02 27 20 C27.66 20.33 28.32 20.66 29 21 C29 19.02 29 17.04 29 15 C27.35 14.34 25.7 13.68 24 13 C24.33 12.34 24.66 11.68 25 11 C20.38 11 15.76 11 11 11 Z M17.25 34.4375 C15.1875 34.623125 13.125 34.80875 11 35 C11 39.62 11 44.24 11 49 C13.91765891 49.10806144 16.83131125 49.18732877 19.75 49.25 C20.575 49.28351562 21.4 49.31703125 22.25 49.3515625 C27.30162387 49.48647097 27.30162387 49.48647097 31.578125 46.984375 C32.28195313 46.00210938 32.28195313 46.00210938 33 45 C32.34 43.35 31.68 41.7 31 40 C31.66 39.67 32.32 39.34 33 39 C33 38.34 33 37.68 33 37 C27.28525499 34.61885625 23.48761311 33.87611482 17.25 34.4375 Z M33 40 C34 44 34 44 34 44 Z " fill="#060606" transform="translate(0,0)"/>
<path d="M0 0 C13.2 0 26.4 0 40 0 C41.57898053 3.15796107 41.81928171 6.60670636 41 10 C39.24609375 12.7421875 39.24609375 12.7421875 36 15 C31.87909266 15.61359932 27.84196274 15.47032588 23.6875 15.3125 C22.00430664 15.27866211 22.00430664 15.27866211 20.28710938 15.24414062 C17.52337464 15.18533776 14.76237446 15.10320401 12 15 C12 17.64 12 20.28 12 23 C20.25 23 28.5 23 37 23 C36.67 24.32 36.34 25.64 36 27 C35.97163997 29.52809386 36.06388565 32.0363594 36.16015625 34.5625 C35.98737236 37.19218647 35.32840718 38.74952195 34 41 C34 39.68 34 38.36 34 37 C26.74 37 19.48 37 12 37 C12 40.3 12 43.6 12 47 C19.92 47 27.84 47 36 47 C36 47.99 36 48.98 36 50 C36.33 50 36.66 50 37 50 C40.44812644 53.5860515 40 54.4570536 40 60 C26.8 60 13.6 60 0 60 C0 40.2 0 20.4 0 0 Z M12 24 C12 24.33 12 24.66 12 25 C19.59 25 27.18 25 35 25 C35 24.67 35 24.34 35 24 C27.41 24 19.82 24 12 24 Z M12 35 C12 35.33 12 35.66 12 36 C19.26 36 26.52 36 34 36 C34 35.67 34 35.34 34 35 C26.74 35 19.48 35 12 35 Z M36 53 C36.99 54.485 36.99 54.485 38 56 C38 55.01 38 54.02 38 53 C37.34 53 36.68 53 36 53 Z M38 56 C39 58 39 58 39 58 Z " fill="#060606" transform="translate(52,0)"/>
<path d="M0 0 C2.97 0 5.94 0 9 0 C9.02578125 0.9178125 9.0515625 1.835625 9.078125 2.78125 C9.42534059 10.29373269 10.14728215 15.53737651 14 22 C14 22.66 14 23.32 14 24 C14.99 24.33 15.98 24.66 17 25 C17.061875 25.66 17.12375 26.32 17.1875 27 C17.97035914 29.89055681 18.85182035 31.4336042 20.5 33.875 C23.00353553 37.6699847 23.71810785 40.48972552 24 45 C25.32 45 26.64 45 28 45 C28.12375 45.7425 28.2475 46.485 28.375 47.25 C28.85561805 49.94700597 28.85561805 49.94700597 30.0625 51.9375 C31.30873712 54.67922166 31.06082183 57.0197305 31 60 C28.89646505 60.0810206 26.79204048 60.13919907 24.6875 60.1875 C23.51574219 60.22230469 22.34398437 60.25710937 21.13671875 60.29296875 C18 60 18 60 16.20703125 58.5390625 C15.80871094 58.03117187 15.41039062 57.52328125 15 57 C14.34 56.731875 13.68 56.46375 13 56.1875 C9.99514995 54.40337028 9.25364336 52.19679056 8 49 C7.6875 46.25 7.6875 46.25 8 44 C8.66 43.34 9.32 42.68 10 42 C9.21625 41.2575 8.4325 40.515 7.625 39.75 C5.39697474 37.4158783 4.31766516 35.83804804 3 33 C2.34 32.67 1.68 32.34 1 32 C1.185625 32.928125 1.37125 33.85625 1.5625 34.8125 C2 38 2 38 1 41 C0.67 40.01 0.34 39.02 0 38 C-0.66 38 -1.32 38 -2 38 C-2.0825 38.886875 -2.165 39.77375 -2.25 40.6875 C-3.11093289 44.48995361 -4.50185283 46.06100333 -7 49 C-8.04451438 50.97711651 -9.05698138 52.97250996 -10 55 C-10.66 55 -11.32 55 -12 55 C-12 56.65 -12 58.3 -12 60 C-16.95 60 -21.9 60 -27 60 C-27 58.35 -27 56.7 -27 55 C-26.34 55 -25.68 55 -25 55 C-24.1605118 52.89828133 -23.32860344 50.79353375 -22.5 48.6875 C-22.0359375 47.51574219 -21.571875 46.34398437 -21.09375 45.13671875 C-19.83537487 42.08153552 -19.83537487 42.08153552 -20 39 C-19.01 39.33 -18.02 39.66 -17 40 C-16.87625 39.46375 -16.7525 38.9275 -16.625 38.375 C-15.87793984 35.5361714 -14.94696636 32.77776798 -14 30 C-14.66 29.34 -15.32 28.68 -16 28 C-15.01 28 -14.02 28 -13 28 C-10.89229241 25.11165997 -10 23.61537605 -10 20 C-9.34 20 -8.68 20 -8 20 C-7.896875 19.46375 -7.79375 18.9275 -7.6875 18.375 C-6.50285811 14.28260075 -4.33428421 10.64285426 -2.375 6.875 C-0.83233285 3.89535667 -0.83233285 3.89535667 0 0 Z M7 8 C8 10 8 10 8 10 Z M1 24 C0.67 24.99 0.34 25.98 0 27 C0.99 27 1.98 27 3 27 C2.34 26.01 1.68 25.02 1 24 Z M-1 28 C0 31 0 31 0 31 Z M-2 31 C-1 33 -1 33 -1 33 Z M5 31 C6 33 6 33 6 33 Z M18 32 C19 34 19 34 19 34 Z M6 33 C7 35 7 35 7 35 Z M20 36 C21 38 21 38 21 38 Z M-7 42 C-6 44 -6 44 -6 44 Z M-9 46 C-8 49 -8 49 -8 49 Z M12 47 C13 49 13 49 13 49 Z M-11 51 C-10 53 -10 53 -10 53 Z M14 51 C15 53 15 53 15 53 Z M27 51 C28 53 28 53 28 53 Z M29 55 C30 57 30 57 30 57 Z " fill="#060606" transform="translate(384,0)"/>
<path d="M0 0 C3.96 0 7.92 0 12 0 C12.9765625 1.7578125 13.953125 3.515625 14.9296875 5.2734375 C16.00897274 7.1612614 16.00897274 7.1612614 18 9 C18.33333333 11 18.66666667 13 19 15 C19.66 15.66 20.32 16.32 21 17 C21.144375 17.78375 21.28875 18.5675 21.4375 19.375 C22.05976009 22.27888042 23.09475156 23.76340401 25 26 C24.67 26.66 24.34 27.32 24 28 C24.99 28 25.98 28 27 28 C28.125 33.75 28.125 33.75 27 36 C27.66 36 28.32 36 29 36 C29.19335938 35.41992188 29.38671875 34.83984375 29.5859375 34.2421875 C31.05729167 29.828125 32.52864583 25.4140625 34 21 C34.66 21 35.32 21 36 21 C36.185625 19.0509375 36.185625 19.0509375 36.375 17.0625 C36.5859375 14.84765625 36.5859375 14.84765625 37 13 C37.66 12.67 38.32 12.34 39 12 C39.3449145 10.66961551 39.67516582 9.33542939 40 8 C41 6 42 4 43 2 C43 1.34 43 0.68 43 0 C45.12493141 -0.02693575 47.24995912 -0.04636628 49.375 -0.0625 C50.55835938 -0.07410156 51.74171875 -0.08570313 52.9609375 -0.09765625 C56 0 56 0 58 1 C57.67 3.31 57.34 5.62 57 8 C56.01 7.67 55.02 7.34 54 7 C53.32471777 8.57967807 52.66010306 10.16391903 52 11.75 C51.62875 12.63171875 51.2575 13.5134375 50.875 14.421875 C49.78574117 17.17753771 49.78574117 17.17753771 50 21 C48.43987595 22.9146977 47.21081721 23.8945914 45 25 C44.855625 26.0725 44.71125 27.145 44.5625 28.25 C43.99068505 32.06209965 42.97599353 33.78901052 41 37 C40.87496094 37.88042969 40.74992187 38.76085938 40.62109375 39.66796875 C39.86298206 43.7350711 38.34984224 47.04426803 36.5625 50.75 C36.24990234 51.42160156 35.93730469 52.09320313 35.61523438 52.78515625 C34.29831054 55.56378201 33.19017851 57.80982149 31 60 C28.66666667 60 26.33333333 60 24 60 C21.74708432 55.20031007 20.75411539 51.27880774 20 46 C19.12603938 43.58597905 18.09285571 41.32825781 17 39 C16.34 39 15.68 39 15 39 C14.566875 37.4221875 14.566875 37.4221875 14.125 35.8125 C12.82381049 31.30138932 12.82381049 31.30138932 11 27 C10.01 26.67 9.02 26.34 8 26 C8.0928125 24.6696875 8.0928125 24.6696875 8.1875 23.3125 C7.9764121 19.5832804 7.07931191 18.03899433 5 15 C4.31822584 13.67432801 3.64808564 12.34246312 3 11 C2.16666667 8.83333333 2.16666667 8.83333333 0 8 C0.33 7.01 0.66 6.02 1 5 C0.67 3.35 0.34 1.7 0 0 Z M55 3 C56 5 56 5 56 5 Z M9 23 C10 25 10 25 10 25 Z M25 29 C26 31 26 31 26 31 Z M39 38 C40 40 40 40 40 40 Z M38 40 C39 42 39 42 39 42 Z M37 42 C36.67 42.99 36.34 43.98 36 45 C36.66 45 37.32 45 38 45 C37.67 44.01 37.34 43.02 37 42 Z M35 46 C36 49 36 49 36 49 Z M33 50 C34 53 34 53 34 53 Z M31 55 C32 57 32 57 32 57 Z " fill="#060606" transform="translate(235,0)"/>
<path d="M0 0 C1.32570511 0.00666183 1.32570511 0.00666183 2.67819214 0.01345825 C3.67907867 0.01360931 4.67996521 0.01376038 5.71118164 0.01391602 C7.33623123 0.02939987 7.33623123 0.02939987 8.99411011 0.04519653 C10.65456863 0.04944138 10.65456863 0.04944138 12.34857178 0.05377197 C15.89458898 0.06499384 19.44035636 0.09010213 22.98629761 0.11550903 C25.38603355 0.12553624 27.78577344 0.13466253 30.18551636 0.14285278 C36.07752911 0.16493971 41.96939552 0.19843697 47.86129761 0.24050903 C47.87485977 1.99699798 47.88452368 3.75351731 47.89254761 5.51004028 C47.89834839 6.48819702 47.90414917 7.46635376 47.91012573 8.47415161 C47.85712289 11.47702781 47.49591615 14.30539829 46.86129761 17.24050903 C46.53129761 17.24050903 46.20129761 17.24050903 45.86129761 17.24050903 C45.86129761 15.26050903 45.86129761 13.28050903 45.86129761 11.24050903 C40.25129761 11.24050903 34.64129761 11.24050903 28.86129761 11.24050903 C28.86129761 27.41050903 28.86129761 43.58050903 28.86129761 60.24050903 C24.90129761 60.24050903 20.94129761 60.24050903 16.86129761 60.24050903 C15.69703785 57.91198951 15.70671768 56.47770719 15.65597534 53.88259888 C15.63603012 52.9818161 15.6160849 52.08103333 15.59553528 51.1529541 C15.57882278 50.1789566 15.56211029 49.20495911 15.54489136 48.20144653 C15.52411026 47.20545441 15.50332916 46.20946228 15.48191833 45.18328857 C15.41640719 41.99410049 15.35753056 38.80482846 15.29879761 35.61550903 C15.25561388 33.4566461 15.21199964 31.29779173 15.16793823 29.13894653 C15.06072424 23.83955674 14.95896076 18.54008298 14.86129761 13.24050903 C13.75270386 13.28691528 12.64411011 13.33332153 11.50192261 13.38113403 C10.03840793 13.41866005 8.57486405 13.45505933 7.11129761 13.49050903 C6.38168823 13.52402466 5.65207886 13.55754028 4.90036011 13.59207153 C1.34540096 13.65670715 -0.72471385 13.53401794 -3.66213989 11.45144653 C-5.13870239 9.24050903 -5.13870239 9.24050903 -5.01370239 5.61550903 C-3.6646738 0.41211304 -3.6646738 0.41211304 0 0 Z M-1.13870239 11.24050903 C-1.13870239 11.57050903 -1.13870239 11.90050903 -1.13870239 12.24050903 C4.14129761 12.24050903 9.42129761 12.24050903 14.86129761 12.24050903 C14.86129761 11.91050903 14.86129761 11.58050903 14.86129761 11.24050903 C9.58129761 11.24050903 4.30129761 11.24050903 -1.13870239 11.24050903 Z M16.86129761 13.24050903 C16.86129761 28.09050903 16.86129761 42.94050903 16.86129761 58.24050903 C17.19129761 58.24050903 17.52129761 58.24050903 17.86129761 58.24050903 C17.86129761 43.39050903 17.86129761 28.54050903 17.86129761 13.24050903 C17.53129761 13.24050903 17.20129761 13.24050903 16.86129761 13.24050903 Z " fill="#060606" transform="translate(316.1387023925781,-0.240509033203125)"/>
<path d="M0 0 C3.63 0 7.26 0 11 0 C12 1 12 1 12.12025452 2.94252014 C12.1169236 4.21826149 12.1169236 4.21826149 12.11352539 5.51977539 C12.11344986 6.48069595 12.11337433 7.44161652 12.11329651 8.43165588 C12.10813522 9.476436 12.10297394 10.52121613 12.09765625 11.59765625 C12.0962413 12.66165146 12.09482635 13.72564667 12.09336853 14.82188416 C12.08775064 18.23545083 12.07519511 21.648953 12.0625 25.0625 C12.05748731 27.37044176 12.052924 29.67838455 12.04882812 31.98632812 C12.0377754 37.65757426 12.02101987 43.32878253 12 49 C13.31355469 48.97679687 14.62710938 48.95359375 15.98046875 48.9296875 C17.71614013 48.91092349 19.45181768 48.89272396 21.1875 48.875 C22.05181641 48.85824219 22.91613281 48.84148438 23.80664062 48.82421875 C33.09253063 48.7530625 33.09253063 48.7530625 36 51 C36.66 53.97 37.32 56.94 38 60 C25.46 60 12.92 60 0 60 C0 40.2 0 20.4 0 0 Z M33 51 C34 53 34 53 34 53 Z " fill="#070707" transform="translate(98,0)"/>
<path d="M0 0 C4.29 0 8.58 0 13 0 C13 19.8 13 39.6 13 60 C8.71 60 4.42 60 0 60 C-1.02141406 56.93575783 -1.12674775 54.85061962 -1.12939453 51.64233398 C-1.13254669 50.5478746 -1.13569885 49.45341522 -1.13894653 48.32579041 C-1.13591019 46.55384056 -1.13591019 46.55384056 -1.1328125 44.74609375 C-1.13376923 43.53429947 -1.13472595 42.32250519 -1.13571167 41.07398987 C-1.13639257 38.51099597 -1.13454456 35.94800035 -1.13037109 33.38500977 C-1.125017 29.4499934 -1.13032156 25.51509095 -1.13671875 21.58007812 C-1.13605804 19.09374975 -1.13477704 16.60742144 -1.1328125 14.12109375 C-1.13483673 12.93776962 -1.13686096 11.7544455 -1.13894653 10.53526306 C-1.13579437 9.44395584 -1.13264221 8.35264862 -1.12939453 7.22827148 C-1.12859894 6.26469223 -1.12780334 5.30111298 -1.12698364 4.30833435 C-1 2 -1 2 0 0 Z M1 3 C1 20.82 1 38.64 1 57 C1.33 57 1.66 57 2 57 C2 39.18 2 21.36 2 3 C1.67 3 1.34 3 1 3 Z " fill="#060606" transform="translate(295,0)"/>
<path d="M0 0 C2.5625 1.125 2.5625 1.125 3.5625 3.125 C3.90909668 3.7324707 4.25569336 4.33994141 4.61279297 4.96582031 C5.68134852 7.3952047 5.79350592 9.03056202 5.7578125 11.671875 C5.75136719 12.51621094 5.74492187 13.36054688 5.73828125 14.23046875 C5.72152344 15.10316406 5.70476562 15.97585937 5.6875 16.875 C5.67847656 17.76316406 5.66945313 18.65132812 5.66015625 19.56640625 C5.63664577 21.75288058 5.60378499 23.93880094 5.5625 26.125 C1.04854609 29.0764314 1.04854609 29.0764314 -1.4375 30.125 C-3.453125 29.3828125 -3.453125 29.3828125 -5.4375 28.125 C-8.71692758 27.88356334 -8.71692758 27.88356334 -12.1875 28 C-13.35796875 28.01804687 -14.5284375 28.03609375 -15.734375 28.0546875 C-17.07242187 28.08949219 -17.07242187 28.08949219 -18.4375 28.125 C-20.38316951 24.64952927 -20.51387127 22.99993656 -19.4375 19.125 C-20.0975 18.795 -20.7575 18.465 -21.4375 18.125 C-21.49139087 16.16696493 -21.53024217 14.20851091 -21.5625 12.25 C-21.58570313 11.15945313 -21.60890625 10.06890625 -21.6328125 8.9453125 C-21.4375 6.125 -21.4375 6.125 -19.4375 4.125 C-19.1075 3.135 -18.7775 2.145 -18.4375 1.125 C-17.65375 0.980625 -16.87 0.83625 -16.0625 0.6875 C-5.87517313 -1.49549861 -5.87517313 -1.49549861 0 0 Z M-4.4375 4.125 C-3.4375 6.125 -3.4375 6.125 -3.4375 6.125 Z M-13.4375 7.125 C-13.4375 8.775 -13.4375 10.425 -13.4375 12.125 C-14.0975 12.125 -14.7575 12.125 -15.4375 12.125 C-15.1075 13.775 -14.7775 15.425 -14.4375 17.125 C-13.7775 17.125 -13.1175 17.125 -12.4375 17.125 C-12.4375 13.825 -12.4375 10.525 -12.4375 7.125 C-12.7675 7.125 -13.0975 7.125 -13.4375 7.125 Z M-2.4375 7.125 C-1.4375 9.125 -1.4375 9.125 -1.4375 9.125 Z M0.5625 9.125 C-0.4275 10.115 -1.4175 11.105 -2.4375 12.125 C-1.1175 12.455 0.2025 12.785 1.5625 13.125 C1.2325 11.805 0.9025 10.485 0.5625 9.125 Z M-17.4375 11.125 C-16.4375 15.125 -16.4375 15.125 -16.4375 15.125 Z M-3.4375 13.125 C-3.4375 16.125 -3.4375 16.125 -3.4375 16.125 Z M-8.4375 15.125 C-8.1075 16.445 -7.7775 17.765 -7.4375 19.125 C-7.1075 18.465 -6.7775 17.805 -6.4375 17.125 C-7.0975 16.465 -7.7575 15.805 -8.4375 15.125 Z M0.5625 15.125 C1.5625 17.125 1.5625 17.125 1.5625 17.125 Z M-16.4375 16.125 C-15.4375 18.125 -15.4375 18.125 -15.4375 18.125 Z M-2.4375 16.125 C-1.7775 17.445 -1.1175 18.765 -0.4375 20.125 C-0.1075 19.135 0.2225 18.145 0.5625 17.125 C-0.4275 16.795 -1.4175 16.465 -2.4375 16.125 Z M-6.4375 19.125 C-5.4375 21.125 -5.4375 21.125 -5.4375 21.125 Z M-18.4375 22.125 C-18.1075 23.115 -17.7775 24.105 -17.4375 25.125 C-17.4375 24.135 -17.4375 23.145 -17.4375 22.125 C-17.7675 22.125 -18.0975 22.125 -18.4375 22.125 Z " fill="#060606" transform="translate(425.4375,0.875)"/>
<path d="M0 0 C0.66 0 1.32 0 2 0 C2 17.16 2 34.32 2 52 C1.34 52 0.68 52 0 52 C0 34.84 0 17.68 0 0 Z " fill="#040404" transform="translate(95,8)"/>
<path d="M0 0 C0.33 0 0.66 0 1 0 C1 15.84 1 31.68 1 48 C0.67 48 0.34 48 0 48 C0 32.16 0 16.32 0 0 Z " fill="#070707" transform="translate(346,12)"/>
<path d="M0 0 C0.33 0 0.66 0 1 0 C1 3.96 1 7.92 1 12 C0.67 12 0.34 12 0 12 C0 8.04 0 4.08 0 0 Z " fill="#070707" transform="translate(12,12)"/>
<path d="M0 0 C0.99 0 1.98 0 3 0 C3 1.98 3 3.96 3 6 C0.8614515 3.8614515 0.57344937 2.86724686 0 0 Z " fill="#010101" transform="translate(45,32)"/>
<path d="M0 0 C0.33 0 0.66 0 1 0 C1 2.97 1 5.94 1 9 C0.67 9 0.34 9 0 9 C0 6.03 0 3.06 0 0 Z " fill="#070707" transform="translate(46,40)"/>
<path d="M0 0 C2 2 2 2 2 5 C1.34 5 0.68 5 0 5 C0 3.35 0 1.7 0 0 Z " fill="#000000" transform="translate(256,55)"/>
<path d="M0 0 C1 4 1 4 1 4 Z " fill="#070707" transform="translate(309,56)"/>
<path d="M0 0 C0.99 0.495 0.99 0.495 2 1 C1.67 1.66 1.34 2.32 1 3 C0.67 2.01 0.34 1.02 0 0 Z " fill="#000000" transform="translate(41,25)"/>
<path d="M0 0 C0.99 0.495 0.99 0.495 2 1 C1.01 1.495 1.01 1.495 0 2 C0 1.34 0 0.68 0 0 Z " fill="#070707" transform="translate(195,51)"/>
<path d="" fill="#070707" transform="translate(0,0)"/>
<path d="" fill="#070707" transform="translate(0,0)"/>
<path d="M0 0 C2 1 2 1 2 1 Z " fill="#070707" transform="translate(231,48)"/>
<path d="" fill="#070707" transform="translate(0,0)"/>
<path d="" fill="#070707" transform="translate(0,0)"/>
<path d="" fill="#070707" transform="translate(0,0)"/>
<path d="M0 0 C2 1 2 1 2 1 Z " fill="#030303" transform="translate(259,23)"/>
<path d="" fill="#070707" transform="translate(0,0)"/>
<path d="" fill="#070707" transform="translate(0,0)"/>
<path d="" fill="#070707" transform="translate(0,0)"/>
<path d="" fill="#070707" transform="translate(0,0)"/>
<path d="" fill="#070707" transform="translate(0,0)"/>
<path d="" fill="#070707" transform="translate(0,0)"/>
<path d="" fill="#070707" transform="translate(0,0)"/>
<path d="" fill="#070707" transform="translate(0,0)"/>
<path d="" fill="#070707" transform="translate(0,0)"/>
<path d="" fill="#070707" transform="translate(0,0)"/>
<path d="" fill="#070707" transform="translate(0,0)"/>
<path d="" fill="#070707" transform="translate(0,0)"/>
<path d="" fill="#070707" transform="translate(0,0)"/>
<path d="" fill="#070707" transform="translate(0,0)"/>
<path d="" fill="#070707" transform="translate(0,0)"/>
<path d="" fill="#070707" transform="translate(0,0)"/>
<path d="" fill="#000000" transform="translate(0,0)"/>
<path d="" fill="#070707" transform="translate(0,0)"/>
<path d="" fill="#000000" transform="translate(0,0)"/>
<path d="" fill="#070707" transform="translate(0,0)"/>
<path d="" fill="#070707" transform="translate(0,0)"/>
<path d="" fill="#070707" transform="translate(0,0)"/>
<path d="" fill="#070707" transform="translate(0,0)"/>
<path d="" fill="#070707" transform="translate(0,0)"/>
<path d="" fill="#070707" transform="translate(0,0)"/>
<path d="" fill="#070707" transform="translate(0,0)"/>
<path d="" fill="#070707" transform="translate(0,0)"/>
<path d="" fill="#070707" transform="translate(0,0)"/>
<path d="" fill="#070707" transform="translate(0,0)"/>
<path d="" fill="#070707" transform="translate(0,0)"/>
<path d="" fill="#070707" transform="translate(0,0)"/>
<path d="" fill="#070707" transform="translate(0,0)"/>
</svg>
